<svg version="1.1" xmlns="http://www.w3.org/2000/svg" xmlns:xlink="http://www.w3.org/1999/xlink" width="331.99999" height="341.19573" viewBox="0,0,331.99999,341.19573"><defs><radialGradient cx="175.16667" cy="234.74185" r="19.25" gradientUnits="userSpaceOnUse" id="color-1"><stop offset="0" stop-color="#ff58ff"/><stop offset="1" stop-color="#ff58ff" stop-opacity="0"/></radialGradient><radialGradient cx="300.16667" cy="234.74185" r="19.25" gradientUnits="userSpaceOnUse" id="color-2"><stop offset="0" stop-color="#ff58ff"/><stop offset="1" stop-color="#ff58ff" stop-opacity="0"/></radialGradient><radialGradient cx="231.05331" cy="91.40166" r="19.25" gradientUnits="userSpaceOnUse" id="color-3"><stop offset="0" stop-color="#ff0cff"/><stop offset="1" stop-color="#ff0cff" stop-opacity="0"/></radialGradient><radialGradient cx="231.05331" cy="85.90166" r="19.25" gradientUnits="userSpaceOnUse" id="color-4"><stop offset="0" stop-color="#ff0cff"/><stop offset="1" stop-color="#ff0cff" stop-opacity="0"/></radialGradient><radialGradient cx="232.05331" cy="79.90166" r="19.25" gradientUnits="userSpaceOnUse" id="color-5"><stop offset="0" stop-color="#ff0cff"/><stop offset="1" stop-color="#ff0cff" stop-opacity="0"/></radialGradient><linearGradient x1="212.30331" y1="70.40166" x2="250.80331" y2="70.40166" gradientUnits="userSpaceOnUse" id="color-6"><stop offset="0" stop-color="#ff30e1"/><stop offset="1" stop-color="#ff30e1" stop-opacity="0"/></linearGradient><radialGradient cx="231.05331" cy="60.40166" r="19.25" gradientUnits="userSpaceOnUse" id="color-7"><stop offset="0" stop-color="#ff0cff"/><stop offset="1" stop-color="#ff0cff" stop-opacity="0"/></radialGradient><radialGradient cx="229.55331" cy="54.90166" r="19.25" gradientUnits="userSpaceOnUse" id="color-8"><stop offset="0" stop-color="#ff0cff"/><stop offset="1" stop-color="#ff0cff" stop-opacity="0"/></radialGradient><radialGradient cx="220.55331" cy="49.90166" r="19.25" gradientUnits="userSpaceOnUse" id="color-9"><stop offset="0" stop-color="#ff0cff"/><stop offset="1" stop-color="#ff0cff" stop-opacity="0"/></radialGradient><radialGradient cx="213.55331" cy="53.40166" r="19.25" gradientUnits="userSpaceOnUse" id="color-10"><stop offset="0" stop-color="#ff0cff"/><stop offset="1" stop-color="#ff0cff" stop-opacity="0"/></radialGradient><radialGradient cx="211.30331" cy="80.15166" r="15.25" gradientUnits="userSpaceOnUse" id="color-11"><stop offset="0" stop-color="#ff0cff"/><stop offset="1" stop-color="#ff0cff" stop-opacity="0"/></radialGradient><radialGradient cx="206.30331" cy="81.65166" r="15.25" gradientUnits="userSpaceOnUse" id="color-12"><stop offset="0" stop-color="#ff0cff"/><stop offset="1" stop-color="#ff0cff" stop-opacity="0"/></radialGradient><radialGradient cx="201.30331" cy="79.15166" r="15.25" gradientUnits="userSpaceOnUse" id="color-13"><stop offset="0" stop-color="#ff0cff"/><stop offset="1" stop-color="#ff0cff" stop-opacity="0"/></radialGradient><radialGradient cx="213.80331" cy="81.15166" r="15.25" gradientUnits="userSpaceOnUse" id="color-14"><stop offset="0" stop-color="#ff0cff"/><stop offset="1" stop-color="#ff0cff" stop-opacity="0"/></radialGradient><radialGradient cx="197.30331" cy="72.65166" r="15.25" gradientUnits="userSpaceOnUse" id="color-15"><stop offset="0" stop-color="#ff0cff"/><stop offset="1" stop-color="#ff0cff" stop-opacity="0"/></radialGradient><radialGradient cx="194.30331" cy="65.65166" r="15.25" gradientUnits="userSpaceOnUse" id="color-16"><stop offset="0" stop-color="#ff0cff"/><stop offset="1" stop-color="#ff0cff" stop-opacity="0"/></radialGradient><radialGradient cx="178.30331" cy="55.15166" r="15.25" gradientUnits="userSpaceOnUse" id="color-17"><stop offset="0" stop-color="#ff0cff"/><stop offset="1" stop-color="#ff0cff" stop-opacity="0"/></radialGradient><radialGradient cx="171.80331" cy="53.15166" r="15.25" gradientUnits="userSpaceOnUse" id="color-18"><stop offset="0" stop-color="#ff0cff"/><stop offset="1" stop-color="#ff0cff" stop-opacity="0"/></radialGradient><radialGradient cx="167.30331" cy="50.15166" r="15.25" gradientUnits="userSpaceOnUse" id="color-19"><stop offset="0" stop-color="#ff0cff"/><stop offset="1" stop-color="#ff0cff" stop-opacity="0"/></radialGradient><radialGradient cx="194.30331" cy="43.15166" r="15.25" gradientUnits="userSpaceOnUse" id="color-20"><stop offset="0" stop-color="#ff0cff"/><stop offset="1" stop-color="#ff0cff" stop-opacity="0"/></radialGradient><radialGradient cx="201.80331" cy="34.15166" r="15.25" gradientUnits="userSpaceOnUse" id="color-21"><stop offset="0" stop-color="#ff0cff"/><stop offset="1" stop-color="#ff0cff" stop-opacity="0"/></radialGradient><radialGradient cx="185.30331" cy="48.65166" r="15.25" gradientUnits="userSpaceOnUse" id="color-22"><stop offset="0" stop-color="#ff0cff"/><stop offset="1" stop-color="#ff0cff" stop-opacity="0"/></radialGradient><radialGradient cx="209.80331" cy="27.65166" r="15.25" gradientUnits="userSpaceOnUse" id="color-23"><stop offset="0" stop-color="#ff0cff"/><stop offset="1" stop-color="#ff0cff" stop-opacity="0"/></radialGradient><radialGradient cx="216.30331" cy="27.15166" r="15.25" gradientUnits="userSpaceOnUse" id="color-24"><stop offset="0" stop-color="#ff0cff"/><stop offset="1" stop-color="#ff0cff" stop-opacity="0"/></radialGradient><radialGradient cx="223.30331" cy="25.15166" r="15.25" gradientUnits="userSpaceOnUse" id="color-25"><stop offset="0" stop-color="#ff0cff"/><stop offset="1" stop-color="#ff0cff" stop-opacity="0"/></radialGradient><radialGradient cx="230.30331" cy="24.65166" r="15.25" gradientUnits="userSpaceOnUse" id="color-26"><stop offset="0" stop-color="#ff0cff"/><stop offset="1" stop-color="#ff0cff" stop-opacity="0"/></radialGradient><radialGradient cx="239.80331" cy="26.15166" r="15.25" gradientUnits="userSpaceOnUse" id="color-27"><stop offset="0" stop-color="#ff0cff"/><stop offset="1" stop-color="#ff0cff" stop-opacity="0"/></radialGradient><radialGradient cx="248.30331" cy="28.65166" r="15.25" gradientUnits="userSpaceOnUse" id="color-28"><stop offset="0" stop-color="#ff0cff"/><stop offset="1" stop-color="#ff0cff" stop-opacity="0"/></radialGradient><radialGradient cx="255.30331" cy="31.65166" r="15.25" gradientUnits="userSpaceOnUse" id="color-29"><stop offset="0" stop-color="#ff0cff"/><stop offset="1" stop-color="#ff0cff" stop-opacity="0"/></radialGradient><radialGradient cx="263.8033" cy="40.40166" r="15.32548" gradientUnits="userSpaceOnUse" id="color-30"><stop offset="0" stop-color="#ff0cff"/><stop offset="1" stop-color="#ff0cff" stop-opacity="0"/></radialGradient><radialGradient cx="270.0533" cy="54.06545" r="21.70165" gradientUnits="userSpaceOnUse" id="color-31"><stop offset="0" stop-color="#ff0cff"/><stop offset="1" stop-color="#ff0cff" stop-opacity="0"/></radialGradient><radialGradient cx="283.0533" cy="66.06545" r="21.70165" gradientUnits="userSpaceOnUse" id="color-32"><stop offset="0" stop-color="#ff0cff"/><stop offset="1" stop-color="#ff0cff" stop-opacity="0"/></radialGradient><radialGradient cx="298.0533" cy="72.06545" r="21.70165" gradientUnits="userSpaceOnUse" id="color-33"><stop offset="0" stop-color="#ff0cff"/><stop offset="1" stop-color="#ff0cff" stop-opacity="0"/></radialGradient><radialGradient cx="317.0533" cy="72.06545" r="21.70165" gradientUnits="userSpaceOnUse" id="color-34"><stop offset="0" stop-color="#ff0cff"/><stop offset="1" stop-color="#ff0cff" stop-opacity="0"/></radialGradient><radialGradient cx="318.55329" cy="64.56545" r="21.70165" gradientUnits="userSpaceOnUse" id="color-35"><stop offset="0" stop-color="#ff0cff"/><stop offset="1" stop-color="#ff0cff" stop-opacity="0"/></radialGradient><radialGradient cx="317.05329" cy="54.56545" r="21.70165" gradientUnits="userSpaceOnUse" id="color-36"><stop offset="0" stop-color="#ff0cff"/><stop offset="1" stop-color="#ff0cff" stop-opacity="0"/></radialGradient><radialGradient cx="308.0533" cy="49.06545" r="21.70165" gradientUnits="userSpaceOnUse" id="color-37"><stop offset="0" stop-color="#ff0cff"/><stop offset="1" stop-color="#ff0cff" stop-opacity="0"/></radialGradient></defs><g transform="translate(-74.00001,-9.40212)"><g data-paper-data="{&quot;isPaintingLayer&quot;:true}" fill-rule="nonzero" stroke-linecap="butt" stroke-linejoin="miter" stroke-miterlimit="10" stroke-dasharray="" stroke-dashoffset="0" style="mix-blend-mode: normal"><path d="M127.58202,116.87649c17.27635,-16.46335 167.32884,46.36594 171.6343,104.12147c5.62128,75.40665 -140.66798,151.32467 -174.9346,123.85358c-11.81702,-9.47355 -16.10097,-209.48677 3.30031,-227.97505z" fill="#7400ca" stroke="none" stroke-width="0"/><path d="M356.14422,344.85154c-34.26661,27.4711 -180.55587,-48.44693 -174.9346,-123.85357c4.30545,-57.75554 154.35795,-120.58482 171.63429,-104.12147c19.40128,18.48828 15.11733,218.5015 3.30031,227.97505z" data-paper-data="{&quot;index&quot;:null}" fill="#7400ca" stroke="none" stroke-width="0"/><path d="M138.66667,350.36347l-6,-236.25h214l-4.25,236.25z" fill="#a42ffd" stroke="none" stroke-width="0"/><path d="M189.66667,349.11347l21.02102,-82.98498c0,0 20.55725,-88.76052 28.6119,-87.93987c10.78604,1.09894 31.83855,93.94588 31.83855,93.94588l28.52853,76.97898z" fill="#b570ea" stroke="none" stroke-width="0"/><path d="M289.65165,113.61239l-21.02102,82.98498c0,0 -20.55725,88.76052 -28.6119,87.93987c-10.78604,-1.09893 -31.83855,-93.94587 -31.83855,-93.94587l-28.52853,-76.97898z" data-paper-data="{&quot;index&quot;:null}" fill="#b570ea" stroke="none" stroke-width="0"/><path d="M217.14565,198.87023l13.2012,42.3003l-18.16595,32.9955l-39.57512,14.75194l-37.24431,-19.70651l-12.31342,-37.34122l13.95052,-35.00861l38.34829,-21.29168z" fill="#ff00fe" stroke="none" stroke-width="0"/><path d="M210.5135,206.69093l10.83335,34.71304l-14.90759,27.0772l-32.47666,12.10592l-30.56391,-16.17182l-10.1048,-30.64344l11.44826,-28.72923l31.46988,-17.47267z" fill="#292929" stroke="none" stroke-width="0"/><path d="M193.66667,234.74185c0,10.63148 -8.28273,19.25 -18.5,19.25c-10.21727,0 -18.5,-8.61852 -18.5,-19.25c0,-10.63148 8.28273,-19.25 18.5,-19.25c10.21727,0 18.5,8.61852 18.5,19.25z" fill="url(#color-1)" stroke="none" stroke-width="0"/><path d="M188.16667,234.8728c0,7.66624 -5.93222,13.88096 -13.25,13.88096c-7.31778,0 -13.25,-6.21472 -13.25,-13.88095c0,-7.66624 5.93222,-13.88095 13.25,-13.88095c7.31778,0 13.25,6.21471 13.25,13.88095z" fill="#ff01ff" stroke="none" stroke-width="0"/><path d="M342.14565,198.87023l13.2012,42.3003l-18.16595,32.9955l-39.57513,14.75194l-37.2443,-19.70651l-12.31342,-37.34122l13.95051,-35.00861l38.34829,-21.29168z" fill="#ff00fe" stroke="none" stroke-width="0"/><path d="M335.5135,206.69093l10.83335,34.71304l-14.90758,27.0772l-32.47666,12.10592l-30.56392,-16.17182l-10.1048,-30.64344l11.44826,-28.72923l31.46988,-17.47267z" fill="#292929" stroke="none" stroke-width="0"/><path d="M318.66667,234.74185c0,10.63148 -8.28273,19.25 -18.5,19.25c-10.21727,0 -18.5,-8.61852 -18.5,-19.25c0,-10.63148 8.28273,-19.25 18.5,-19.25c10.21727,0 18.5,8.61852 18.5,19.25z" fill="url(#color-2)" stroke="none" stroke-width="0"/><path d="M313.16667,234.8728c0,7.66624 -5.93223,13.88096 -13.25,13.88096c-7.31777,0 -13.25,-6.21472 -13.25,-13.88095c0,-7.66624 5.93223,-13.88095 13.25,-13.88095c7.31777,0 13.25,6.21471 13.25,13.88095z" fill="#ff01ff" stroke="none" stroke-width="0"/><path d="M240.14667,323.90519l-12.48,-19.5h23.4z" fill="#ff00fe" stroke="#ff00fe" stroke-width="0.5"/><path d="M240.40001,294.90519l-19.73334,-30.83334h37z" fill="#ff00fe" stroke="#ff00fe" stroke-width="0.5"/><path d="M114.66667,254.40519c0,24.02438 4.40356,41.5 -2.5,41.5c-3.13261,0 -8.25555,-16.67829 -8.9951,-34.89873c-0.89024,-21.93329 -0.0049,-45.10127 -0.0049,-45.10127l11.53525,1.60308c0,0 -0.03525,28.58407 -0.03525,36.89692z" fill="#8d00f9" stroke="none" stroke-width="0"/><path d="M114.37515,242.1127l-11.21922,1.29249c0,0 -0.86109,-18.67919 0.00476,-36.36291c0.71928,-14.69024 5.70188,-28.13709 8.74866,-28.13709c6.71442,0 2.43151,14.08972 2.43151,33.45938c0,6.70223 0.03429,29.74813 0.03429,29.74813z" data-paper-data="{&quot;index&quot;:null}" fill="#ff00fe" stroke="none" stroke-width="0"/><path d="M105.13726,240.11347c0,20.43454 2.52941,46 2.52941,46c0,0 -33.66666,-26.56546 -33.66666,-47c0,-20.43454 31.98039,-47 31.98039,-47c0,0 -0.84314,27.56546 -0.84314,48z" fill="#6000aa" stroke="none" stroke-width="0"/><path d="M84.66667,221.11347c0,0 -1.53092,-17.31512 1.98193,-37.35378c4.60519,-26.26979 15.00419,-57.93888 19.98577,-68.63832c2.16896,-4.6585 14.86854,-15.28894 29.35049,-18.41149c23.54476,-5.07664 186.34849,-2.26308 186.34849,-2.26308l3.66666,23.66666c0,0 -199.21976,-1.4607 -201.63591,4.34613c-3.73415,8.97442 -6.92456,38.9332 -6.92456,38.9332c0,0 -7.5957,4.75254 -8.64376,9.34069c-2.63907,11.55327 -3.79576,45.04665 -3.79576,45.04665z" fill="#7a00ab" stroke="none" stroke-width="0"/><path d="M365.29808,217.50828l11.53525,-1.60308c0,0 0.88534,23.16798 -0.0049,45.10127c-0.73955,18.22044 -5.86249,34.89873 -8.9951,34.89873c-6.90356,0 -2.5,-17.47562 -2.5,-41.5c0,-8.31285 -0.03525,-36.89692 -0.03525,-36.89692z" data-paper-data="{&quot;index&quot;:null}" fill="#8d00f9" stroke="none" stroke-width="0"/><path d="M365.63795,211.32707c0,-18.76906 -4.21547,-32.42188 2.39321,-32.42188c2.99881,0 7.90293,13.0299 8.61089,27.26463c0.85222,17.13538 0.00469,35.23537 0.00469,35.23537l-11.04254,-1.25241c0,0 0.03375,-22.3313 0.03375,-28.82571z" data-paper-data="{&quot;index&quot;:null}" fill="#ff00fe" stroke="none" stroke-width="0"/><path d="M374.01961,192.11347c0,0 31.98039,26.56546 31.98039,47c0,20.43454 -33.66666,47 -33.66666,47c0,0 2.52941,-25.56546 2.52941,-46c0,-20.43454 -0.84314,-48 -0.84314,-48z" data-paper-data="{&quot;index&quot;:null}" fill="#6000aa" stroke="none" stroke-width="0"/><path d="M374.99999,215.78014c0,0 -1.1567,-33.49338 -3.79577,-45.04665c-1.04805,-4.58814 -8.64375,-9.34069 -8.64375,-9.34069c0,0 -3.19041,-29.95877 -6.92456,-38.9332c-2.41615,-5.80683 -201.63591,-4.34613 -201.63591,-4.34613l3.66666,-23.66666c0,0 162.80373,-2.81357 186.34849,2.26308c14.48195,3.12255 27.18152,13.75299 29.35048,18.41149c4.98158,10.69944 15.38058,42.36853 19.98577,68.63832c3.51285,20.03866 1.98193,37.35378 1.98193,37.35378z" data-paper-data="{&quot;index&quot;:null}" fill="#6000aa" stroke="none" stroke-width="0"/><path d="M220.71498,96.25038l-1.91297,-9.82729c0,0 -15.4782,1.1325 -25.69747,-6.12767c-2.21878,-1.57631 -5.29268,-10.58557 -9.57348,-13.00335c-4.26488,-2.40879 -16.83038,-4.40875 -22.23269,-10.62843c-2.80219,-3.22617 -2.4092,-11.89519 2.67765,-15.48463c3.71484,-2.62132 12.34976,-0.51964 12.09742,-1.58927c-1.02076,-4.32683 -5.69553,15.04667 1.25528,10.63706c4.26896,-2.70824 8.90276,-11.52543 9.7165,-11.6453c0.38912,-0.05732 2.11167,-7.75927 7.43748,-12.2575c5.16418,-4.36171 13.871,-5.50482 18.29002,-6.73879c4.71186,-1.31575 33.73017,-3.55363 54.0375,6.38472c5.17126,2.53081 5.52728,24.58852 15.94084,37.92293c1.32026,1.69058 27.88295,8.34457 27.67653,5.47731c-0.06107,-0.84831 3.7575,-10.5399 -0.28175,-12.70092c-7.97566,-4.26703 -26.57179,-1.6914 -26.02696,-1.35683c1.22829,0.75427 25.39244,-20.94099 35.4171,-10.93604c3.08239,3.07633 11.16748,17.89898 10.16411,29.82023c-0.72786,8.64786 -10.32744,15.7689 -10.3264,15.77164c0.06231,0.16354 -31.18321,1.49687 -46.05947,-9.72663c-17.59278,-13.27299 -19.51609,-39.63549 -23.12042,-42.23459c-12.83432,-9.25489 -29.64134,-7.87428 -35.19356,-6.29605c-11.21912,3.18907 -16.67975,12.02855 -17.16647,15.3647c-1.44607,9.91188 2.86701,18.19214 6.87633,20.5128c7.14953,4.13826 18.05441,-1.92323 18.5196,-2.13155c7.3854,-3.30737 0.94183,-12.26034 -0.19552,-13.00218c-3.60954,-2.35434 -19.67703,2.91042 -19.67703,2.91042c0,0 1.16032,-10.55652 8.09516,-14.23187c6.60658,-3.50137 18.92667,-0.14302 21.8761,0.35611c4.68676,0.79315 11.45741,10.2955 11.45741,10.2955c0,0 -1.1856,19.26606 -1.55825,25.3217c-0.20846,3.38745 -0.48761,20.00688 -0.48761,20.00688z" fill="#ff00fe" stroke="none" stroke-width="0"/><path d="M250.30331,91.40166c0,5.24671 -8.61852,9.5 -19.25,9.5c-10.63148,0 -19.25,-4.25329 -19.25,-9.5c0,-5.24671 8.61852,-9.5 19.25,-9.5c10.63148,0 19.25,4.25329 19.25,9.5z" fill="url(#color-3)" stroke="none" stroke-width="0"/><path d="M250.30331,85.90166c0,5.24671 -8.61852,9.5 -19.25,9.5c-10.63148,0 -19.25,-4.25329 -19.25,-9.5c0,-5.24671 8.61852,-9.5 19.25,-9.5c10.63148,0 19.25,4.25329 19.25,9.5z" fill="url(#color-4)" stroke="none" stroke-width="0"/><path d="M251.30331,79.90166c0,5.24671 -8.61852,9.5 -19.25,9.5c-10.63148,0 -19.25,-4.2533 -19.25,-9.5c0,-5.2467 8.61852,-9.5 19.25,-9.5c10.63148,0 19.25,4.2533 19.25,9.5z" fill="url(#color-5)" stroke="none" stroke-width="0"/><path d="M250.80331,70.40166c0,5.2467 -8.61852,9.5 -19.25,9.5c-10.63148,0 -19.25,-4.2533 -19.25,-9.5c0,-5.2467 8.61852,-9.5 19.25,-9.5c10.63148,0 19.25,4.2533 19.25,9.5z" fill="url(#color-6)" stroke="none" stroke-width="0"/><path d="M250.30331,60.40166c0,5.2467 -8.61852,9.5 -19.25,9.5c-10.63148,0 -19.25,-4.2533 -19.25,-9.5c0,-5.2467 8.61852,-9.5 19.25,-9.5c10.63148,0 19.25,4.2533 19.25,9.5z" fill="url(#color-7)" stroke="none" stroke-width="0"/><path d="M246.93798,46.63513c2.2531,4.7383 -3.7038,12.2805 -13.30509,16.84598c-9.60129,4.56548 -19.21116,4.42538 -21.46426,-0.31292c-2.2531,-4.7383 3.7038,-12.2805 13.30509,-16.84598c9.60129,-4.56548 19.21116,-4.42538 21.46426,0.31292z" fill="url(#color-8)" stroke="none" stroke-width="0"/><path d="M238.54589,43.05845c1.86516,4.90398 -4.67838,11.94327 -14.61541,15.72267c-9.93703,3.7794 -19.50459,2.86774 -21.36975,-2.03624c-1.86516,-4.90398 4.67838,-11.94327 14.61541,-15.72267c9.93703,-3.7794 19.50459,-2.86774 21.36975,2.03624z" fill="url(#color-9)" stroke="none" stroke-width="0"/><path d="M208.70282,72.03055c-5.07741,-1.32203 -7.02184,-10.73418 -4.34299,-21.02263c1.45525,-5.58906 7.51676,-13.6639 13.56448,-15.09485c5.08503,-1.20316 10.1603,3.75586 12.47947,4.35971c5.07742,1.32203 -4.97816,5.23419 -7.657,15.52263c-2.67885,10.28845 -8.96654,17.55717 -14.04396,16.23514z" fill="url(#color-10)" stroke="none" stroke-width="0"/><path d="M218.80331,80.15166c0,8.42234 -3.35787,15.25 -7.5,15.25c-4.14213,0 -7.5,-6.82766 -7.5,-15.25c0,-8.42234 3.35787,-15.25 7.5,-15.25c4.14213,0 7.5,6.82766 7.5,15.25z" fill="url(#color-11)" stroke="none" stroke-width="0"/><path d="M213.80331,81.65166c0,8.42234 -3.35787,15.25 -7.5,15.25c-4.14213,0 -7.5,-6.82766 -7.5,-15.25c0,-8.42234 3.35787,-15.25 7.5,-15.25c4.14213,0 7.5,6.82766 7.5,15.25z" fill="url(#color-12)" stroke="none" stroke-width="0"/><path d="M208.80331,79.15166c0,8.42234 -3.35787,15.25 -7.5,15.25c-4.14213,0 -7.5,-6.82766 -7.5,-15.25c0,-8.42234 3.35787,-15.25 7.5,-15.25c4.14213,0 7.5,6.82766 7.5,15.25z" fill="url(#color-13)" stroke="none" stroke-width="0"/><path d="M221.30331,81.15166c0,8.42234 -3.35787,15.25 -7.5,15.25c-4.14213,0 -7.5,-6.82766 -7.5,-15.25c0,-8.42234 3.35787,-15.25 7.5,-15.25c4.14213,0 7.5,6.82766 7.5,15.25z" fill="url(#color-14)" stroke="none" stroke-width="0"/><path d="M204.00186,76.025c-3.78818,7.52233 -9.85816,12.1101 -13.55767,10.24705c-3.69951,-1.86304 -3.62761,-9.4714 0.16057,-16.99372c3.78818,-7.52233 9.85816,-12.11009 13.55767,-10.24706c3.69951,1.86304 3.62761,9.4714 -0.16057,16.99372z" fill="url(#color-15)" stroke="none" stroke-width="0"/><path d="M198.05952,72.14326c-7.28993,4.21815 -14.8813,4.73124 -16.9558,1.14603c-2.0745,-3.58521 2.15345,-9.91109 9.44338,-14.12923c7.28993,-4.21814 14.8813,-4.73124 16.9558,-1.14603c2.0745,3.58521 -2.15344,9.91109 -9.44338,14.12923z" fill="url(#color-16)" stroke="none" stroke-width="0"/><path d="M185.80331,55.15166c0,8.42234 -3.35787,15.25 -7.5,15.25c-4.14213,0 -7.5,-6.82766 -7.5,-15.25c0,-8.42234 3.35787,-15.25 7.5,-15.25c4.14213,0 7.5,6.82766 7.5,15.25z" fill="url(#color-17)" stroke="none" stroke-width="0"/><path d="M178.6617,56.18685c-3.40845,7.70184 -9.24216,12.58651 -13.02995,10.91022c-3.78779,-1.67629 -4.0953,-9.27877 -0.68685,-16.9806c3.40845,-7.70183 9.24216,-12.58651 13.02995,-10.91022c3.78779,1.67629 4.0953,9.27876 0.68685,16.9806z" fill="url(#color-18)" stroke="none" stroke-width="0"/><path d="M173.84012,53.82862c-4.12914,7.34071 -10.40311,11.6453 -14.0133,9.61456c-3.61019,-2.03073 -3.18947,-9.62778 0.93967,-16.96848c4.12914,-7.3407 10.40311,-11.64529 14.0133,-9.61456c3.61019,2.03073 3.18948,9.62778 -0.93967,16.96848z" fill="url(#color-19)" stroke="none" stroke-width="0"/><path d="M200.68487,39.2114c4.42483,7.16635 5.15475,14.73996 1.63031,16.9161c-3.52444,2.17614 -9.9686,-1.86922 -14.39343,-9.03558c-4.42483,-7.16635 -5.15475,-14.73996 -1.63031,-16.9161c3.52444,-2.17615 9.9686,1.86922 14.39343,9.03558z" fill="url(#color-20)" stroke="none" stroke-width="0"/><path d="M208.84274,31.56391c2.90599,7.90513 2.1101,15.47208 -1.77767,16.90125c-3.88777,1.42918 -9.3952,-3.82063 -12.30119,-11.72576c-2.90599,-7.90513 -2.11009,-15.47207 1.77768,-16.90125c3.88777,-1.42918 9.3952,3.82063 12.30118,11.72576z" fill="url(#color-21)" stroke="none" stroke-width="0"/><path d="M192.34274,46.06392c2.90598,7.90513 2.1101,15.47208 -1.77767,16.90125c-3.88777,1.42918 -9.3952,-3.82063 -12.30119,-11.72576c-2.90598,-7.90513 -2.11009,-15.47208 1.77768,-16.90125c3.88777,-1.42918 9.3952,3.82063 12.30118,11.72576z" fill="url(#color-22)" stroke="none" stroke-width="0"/><path d="M216.84274,25.06392c2.90598,7.90513 2.1101,15.47207 -1.77767,16.90125c-3.88777,1.42918 -9.3952,-3.82063 -12.30119,-11.72576c-2.90599,-7.90513 -2.1101,-15.47207 1.77768,-16.90125c3.88777,-1.42917 9.3952,3.82063 12.30118,11.72576z" fill="url(#color-23)" stroke="none" stroke-width="0"/><path d="M223.75202,26.27605c0.98329,8.36475 -1.5545,15.53774 -5.66831,16.02132c-4.11381,0.48359 -8.24583,-5.90537 -9.22912,-14.27011c-0.98329,-8.36474 1.5545,-15.53774 5.66831,-16.02132c4.11381,-0.48358 8.24583,5.90537 9.22912,14.27011z" fill="url(#color-24)" stroke="none" stroke-width="0"/><path d="M230.80224,25.0252c0.14201,8.42114 -3.10024,15.30445 -7.24179,15.37429c-4.14155,0.06985 -7.61407,-6.70023 -7.75608,-15.12137c-0.14201,-8.42115 3.10024,-15.30445 7.24179,-15.37429c4.14155,-0.06985 7.61407,6.70023 7.75608,15.12137z" fill="url(#color-25)" stroke="none" stroke-width="0"/><path d="M237.80299,24.58429c0.07565,8.422 -3.22073,15.27954 -7.3627,15.31675c-4.14197,0.03721 -7.56104,-6.76001 -7.63669,-15.18201c-0.07566,-8.422 3.22073,-15.27954 7.3627,-15.31675c4.14197,-0.03721 7.56104,6.76002 7.63669,15.18201z" fill="url(#color-26)" stroke="none" stroke-width="0"/><path d="M247.24487,27.08611c-1.04936,8.35671 -5.23173,14.7128 -9.34159,14.19672c-4.10986,-0.51608 -6.59089,-7.7089 -5.54153,-16.06561c1.04936,-8.35672 5.23173,-14.7128 9.34159,-14.19672c4.10986,0.51608 6.59089,7.7089 5.54153,16.06562z" fill="url(#color-27)" stroke="none" stroke-width="0"/><path d="M255.70432,29.86614c-1.36383,8.31119 -5.78298,14.50498 -9.87045,13.83425c-4.08747,-0.67074 -6.29541,-7.95202 -4.93158,-16.26321c1.36383,-8.31118 5.78298,-14.50498 9.87045,-13.83425c4.08747,0.67073 6.29541,7.95202 4.93158,16.26321z" fill="url(#color-28)" stroke="none" stroke-width="0"/><path d="M262.13166,34.75383c-3.48367,7.66811 -9.36491,12.49545 -13.13611,10.78217c-3.7712,-1.71327 -4.0043,-9.3184 -0.52063,-16.98651c3.48367,-7.66811 9.36491,-12.49544 13.1361,-10.78217c3.7712,1.71328 4.0043,9.3184 0.52063,16.98651z" fill="url(#color-29)" stroke="none" stroke-width="0"/><path d="M269.0255,45.83645c-7.2784,7.91219 -15.51676,11.89306 -18.4009,8.89151c-2.88414,-3.00154 0.67811,-11.84889 7.95652,-19.76108c7.2784,-7.9122 15.51676,-11.89306 18.4009,-8.89151c2.88414,3.00155 -0.67812,11.84889 -7.95652,19.76109z" fill="url(#color-30)" stroke="none" stroke-width="0"/><path d="M277.68644,61.52514c-8.37708,8.57185 -18.5855,12.18088 -22.80116,8.06101c-4.21567,-4.11987 -0.84218,-14.40855 7.5349,-22.9804c8.37708,-8.57185 18.5855,-12.18088 22.80116,-8.06101c4.21567,4.11987 0.84218,14.40855 -7.5349,22.9804z" fill="url(#color-31)" stroke="none" stroke-width="0"/><path d="M293.18176,69.43085c-3.77928,11.37405 -11.37764,19.08779 -16.97144,17.22914c-5.5938,-1.85866 -7.06476,-12.5859 -3.28548,-23.95995c3.77928,-11.37405 11.37764,-19.08779 16.97144,-17.22914c5.5938,1.85866 7.06476,12.5859 3.28548,23.95995z" fill="url(#color-32)" stroke="none" stroke-width="0"/><path d="M308.65916,73.26014c-1.34161,11.91017 -7.17761,21.03037 -13.03507,20.37056c-5.85746,-0.65981 -9.51828,-10.84979 -8.17666,-22.75996c1.34161,-11.91017 7.17761,-21.03037 13.03507,-20.37056c5.85746,0.65981 9.51828,10.84979 8.17666,22.75996z" fill="url(#color-33)" stroke="none" stroke-width="0"/><path d="M326.61651,67.32659c5.32165,10.73928 5.3541,21.56683 0.07249,24.18404c-5.28161,2.6172 -13.87725,-3.96704 -19.1989,-14.70632c-5.32165,-10.73928 -5.3541,-21.56683 -0.07249,-24.18404c5.28161,-2.6172 13.87725,3.96704 19.1989,14.70632z" fill="url(#color-34)" stroke="none" stroke-width="0"/><path d="M313.86317,74.15264c-10.76622,-5.26693 -17.39411,-13.82894 -14.80382,-19.1238c2.59029,-5.29486 13.41788,-5.31751 24.18411,-0.05059c10.76622,5.26693 17.39411,13.82894 14.80382,19.1238c-2.59029,5.29486 -13.41788,5.31751 -24.18411,0.05059z" fill="url(#color-35)" stroke="none" stroke-width="0"/><path d="M317.50666,65.22876c-11.97467,0.50913 -21.88503,-3.85226 -22.13543,-9.74145c-0.25039,-5.88918 9.25402,-11.07604 21.22869,-11.58517c11.97467,-0.50913 21.88503,3.85226 22.13543,9.74145c0.25039,5.88918 -9.25402,11.07604 -21.22869,11.58517z" fill="url(#color-36)" stroke="none" stroke-width="0"/><path d="M315.68644,56.52514c-8.37707,8.57185 -18.58549,12.18089 -22.80116,8.06101c-4.21567,-4.11987 -0.84217,-14.40855 7.5349,-22.9804c8.37707,-8.57185 18.58549,-12.18088 22.80116,-8.06102c4.21567,4.11987 0.84217,14.40855 -7.5349,22.9804z" fill="url(#color-37)" stroke="none" stroke-width="0"/><path d="M145,141.86522c0,-1.38071 1.11929,-2.5 2.5,-2.5c1.38071,0 2.5,1.11929 2.5,2.5c0,1.38071 -1.11929,2.5 -2.5,2.5c-1.38071,0 -2.5,-1.11929 -2.5,-2.5z" fill="#fb00ff" stroke="none" stroke-width="0.5"/></g></g></svg>