<svg version="1.1" xmlns="http://www.w3.org/2000/svg" xmlns:xlink="http://www.w3.org/1999/xlink" width="62" height="52" viewBox="0,0,62,52"><g transform="translate(-88.5,-92)"><g data-paper-data="{&quot;isPaintingLayer&quot;:true}" fill-rule="nonzero" stroke="none" stroke-width="0" stroke-linecap="butt" stroke-linejoin="miter" stroke-miterlimit="10" stroke-dasharray="" stroke-dashoffset="0" style="mix-blend-mode: normal"><path d="M88.5,144v-52h62v52z" fill="#9966ff"/><path d="M114.5,111.5c0,2.48528 -4.25329,4.5 -9.5,4.5c-5.24671,0 -9.5,-2.01472 -9.5,-4.5c0,-2.48528 4.25329,-4.5 9.5,-4.5c5.24671,0 9.5,2.01472 9.5,4.5z" fill="#000000"/><path d="M143.5,112c0,1.65685 -4.02944,3 -9,3c-4.97056,0 -9,-1.34315 -9,-3c0,-1.65685 4.02944,-3 9,-3c4.97056,0 9,1.34315 9,3z" fill="#000000"/></g></g></svg>