<svg version="1.1" xmlns="http://www.w3.org/2000/svg" xmlns:xlink="http://www.w3.org/1999/xlink" width="196.96239" height="128.46358" viewBox="0,0,196.96239,128.46358"><g transform="translate(-113.03761,-116.23381)"><g data-paper-data="{&quot;isPaintingLayer&quot;:true}" fill-rule="nonzero" stroke-linejoin="miter" stroke-miterlimit="10" stroke-dasharray="" stroke-dashoffset="0" style="mix-blend-mode: normal"><path d="" fill="#97cfff" stroke="none" stroke-width="NaN" stroke-linecap="butt"/><path d="" fill="#97cfff" stroke="none" stroke-width="NaN" stroke-linecap="butt"/><path d="" fill="#97cfff" stroke="none" stroke-width="NaN" stroke-linecap="butt"/><path d="" fill="#97cfff" stroke="none" stroke-width="NaN" stroke-linecap="butt"/><path d="" fill="none" stroke="#97cfff" stroke-width="0.5" stroke-linecap="round"/><path d="" fill="none" stroke="#97cfff" stroke-width="0.5" stroke-linecap="round"/><path d="" fill="none" stroke="#97cfff" stroke-width="0.5" stroke-linecap="round"/><path d="" fill="none" stroke="#97cfff" stroke-width="0.5" stroke-linecap="round"/><path d="" fill="none" stroke="#97cfff" stroke-width="0.5" stroke-linecap="round"/><path d="" fill="none" stroke="#97cfff" stroke-width="0.5" stroke-linecap="round"/><path d="" fill="none" stroke="#97cfff" stroke-width="0.5" stroke-linecap="round"/><path d="" fill="none" stroke="#97cfff" stroke-width="0.5" stroke-linecap="round"/><path d="" fill="none" stroke="#97cfff" stroke-width="0.5" stroke-linecap="round"/><g><path d="M175.5,236.5c0,0 -3,-3.53669 -3,-7c0,-13.78649 3,-102.5 3,-102.5c0,0 7.78363,-6.5 12.5,-6.5c14.174,0 84.10496,-0.6514 109.09933,0.93207c5.56359,0.35247 8.90067,5.56793 8.90067,5.56793c0,0 1.5,89.11055 1.5,102.5c0,3.2238 -1.5,7 -1.5,7c0,0 -2.73071,3 -6.5,3c-14.00263,0 -97.2322,0.15333 -116.97558,-0.38906c-2.57979,-0.07087 -7.02442,-2.61094 -7.02442,-2.61094z" fill="#a1e6ff" stroke="#5bb7ff" stroke-width="5" stroke-linecap="butt"/><path d="M177.5,165.25v-42.25l86,-3l-21.69782,22.52513c0,0 -26.19026,3.0084 -28.77449,5.12051c-0.98779,0.80733 -4.23546,-9.5075 -7.34252,-4.85856c-3.35758,5.02379 -8.55097,4.00529 -8.55097,4.00529l-4.6342,-2.54237c0,0 -7.62225,9.67115 -9.40878,12.1723c-2.76902,3.87662 -5.59122,8.8277 -5.59122,8.8277z" fill="#34c9ff" stroke="#7bdfff" stroke-width="0.5" stroke-linecap="butt"/><path d="M226,185c0,2.5 -2.5,2.5 -2.5,2.5h-2c-2.58141,0 -7.34854,0.77997 -9.72446,-0.10727c-5.29007,-1.97548 -7.09303,-6.82764 -4.40217,-11.70706c0.1158,-0.20999 3.96377,-4.08045 4.35886,-4.45344c0.91862,-0.86723 1.63961,-2.06901 2.81106,-2.54193c1.22441,-0.49431 2.63677,-0.15419 3.95671,-0.1903c3.97751,-0.10881 8.02249,-0.10881 12,0c1.31993,0.03611 2.7323,-0.30401 3.95671,0.1903c1.17144,0.47293 1.87404,1.69462 2.81106,2.54193c6.9019,7.17864 4.42056,21.2099 -6.36731,23.23549c-4.84576,0.90986 -10.15272,-0.81111 -15,0c-2.88614,0.48295 -5.78523,2.11338 -8.60989,2.90399c-1.44197,0.4036 -2.92999,1.48923 -4.36495,1.06141c-5.69454,-1.69776 -3.92562,-9.15542 -3.92562,-13.43312c0,-0.47331 -0.00949,-6.14904 0.03228,-6.40046c0.54071,-3.25427 1.98705,-5.24682 1.96772,-8.59954c-0.00765,-1.32693 -0.09374,-6.74439 0.47189,-7.46178c2.32661,-2.95082 7.86061,-2.03822 11.02811,-2.03822c8.76304,0 18.84297,-1.34375 26.38675,3.41987c0,0 2.08013,1.38675 0.69338,3.46688c-1.38675,2.08013 -3.46688,0.69338 -3.46688,0.69338c-0.77924,-0.56247 -1.42283,-1.39317 -2.33771,-1.6874c-0.8495,-0.2732 -1.79527,0.21852 -2.676,0.07499c-1.04037,-0.16955 -1.9613,-0.82049 -3,-1c-4.844,-0.83714 -10.68747,0.03228 -15.59954,0.03228c-1.86655,0 -3.73309,-0.01432 -5.59954,-0.03228c-0.45743,-0.0044 -1.14058,-0.40034 -1.37235,-0.00594c-0.27173,0.4624 0.41643,1.00477 0.47189,1.53822c0.03027,0.29112 -0.02482,6.35556 -0.03228,6.40046c-0.34555,2.07967 -1.65207,3.92072 -2,6c-0.30805,1.84095 0.03228,3.733 0.03228,5.59954c0,2 0.07541,4.00142 0,6c-0.03228,0.85538 -0.76188,2.74956 0.07438,2.56688c3.64695,-0.79668 7.20094,-3.39918 11.02516,-4.0346c3.87314,-0.64354 8.46772,-0.05495 12.40046,-0.03228c1.64458,0.00948 3.19043,0.32009 4.68567,-0.62663c4.71611,-2.98602 5.52494,-10.3565 1.54656,-14.10561c-0.39631,-0.48602 -0.60512,-1.22908 -1.18894,-1.45807c-0.63681,-0.24977 -1.35973,0.16451 -2.04329,0.1903c-2.98818,0.11275 -6.00945,0 -9,0c-1.68229,0 -3.47716,-0.80458 -5.04329,-0.1903c-0.58382,0.22899 -0.7638,0.99705 -1.18894,1.45807c-1.4312,1.55198 -7.54179,6.44546 -2.04331,7.8395c2.27741,0.5774 5.90842,-0.10727 8.27554,-0.10727h2c0,0 2.5,0 2.5,2.5z" fill="#ffffff" stroke="none" stroke-width="0.5" stroke-linecap="butt"/><path d="M273,181c0,2.5 -2.5,2.5 -2.5,2.5h-3c-1.58926,-0.24408 -3.74649,0.50966 -4.76777,-0.73223c-2.84151,-3.45533 -0.2181,-7.15016 2.45344,-8.89439c3.50959,-2.29139 9.32021,-1.53794 13.31433,-1.37337c1.39552,0.0575 3.00644,-0.46205 4.17964,0.29581c7.392,4.77507 1.45812,13.23744 -3.86532,16.33081c-2.90625,1.68878 -4.24446,1.34423 -7.31433,1.37337c-5.82788,0 -13.80144,1.35333 -17.98677,-3.98252c-3.90455,-4.97789 -0.4772,-10.19542 1.74098,-14.61586c1.07594,-2.14417 1.92204,-4.71776 3.93146,-6.02825c0.95072,-0.62004 2.19896,-0.61512 3.21595,-1.11916c1.19438,-0.59196 2.10869,-1.72722 3.37392,-2.14694c1.05191,-0.34896 2.2305,0.10542 3.324,-0.07499c2.08007,-0.34317 3.92033,-1.65445 6,-2c0.25142,-0.04177 5.92714,-0.03228 6.40046,-0.03228c0,0 2.5,0 2.5,2.5c0,2.5 -2.5,2.5 -2.5,2.5c-6.88114,0 -13.70646,1.51257 -19.68567,4.62663c-1.73959,0.906 -1.2559,2.34017 -2.06854,3.97175c-0.88954,1.786 -2.43821,3.33597 -2.77807,5.30208c-1.37714,7.96683 9.76823,6.09954 14.53228,6.09954c4.44467,0.05519 5.13513,-1.4117 8.23223,-4.26777c0.75277,-0.69418 2.91601,-2.93479 0.58812,-4.02805c-0.55644,-0.26132 -1.20676,0.25816 -1.82036,0.29581c-2.81007,0.17245 -5.81542,-0.40461 -8.59954,-0.03228c-0.7228,0.09666 -1.42915,0.34241 -2.08613,0.65891c-0.30215,0.14556 -0.52594,0.41057 -0.77489,0.64008c0.15396,-0.08821 0.3081,-0.17611 0.46056,-0.2667h3c0,0 2.5,0 2.5,2.5z" fill="#ffffff" stroke="none" stroke-width="0.5" stroke-linecap="butt"/><path d="M136.06401,225.92075l23.35358,-43.22528l-40.5863,-25.36162c0,0 35.37775,-12.01633 28.03672,-20.50005c-9.93452,-11.4809 -30.93044,-18.09999 -30.93044,-18.09999l58.93393,8.39788l-0.5727,70.20182z" fill="#00afff" stroke="#26c9ff" stroke-width="5" stroke-linecap="butt"/><path d="M242.35528,200.07289l6.38388,-0.76303l1.40414,-10.14771l7.21198,10.91074l10.66667,3.10468l-8.66667,7.09642l1.33333,6.65289l-10,-2.66116l-10.66667,7.09642l2.66667,-9.31405l-6.33333,-0.44352l4.66667,-8.42699z" fill="#cbfaff" stroke="#61c2ff" stroke-width="1.5" stroke-linecap="round"/><path d="M197.55528,234.82882l-14.66667,1.33333c0,0 -4.92345,-0.70293 -6.26479,-2.86074c-1.19798,-1.92718 -1.40188,-9.47259 -1.40188,-9.47259l-0.66667,-22.66667l5,2.66667l8,-7.33333l-1.66667,13.33333h3.66667l-1.66667,8.33333l2.66667,8.33333l13.33333,3l-11.33333,2l19.66667,5.33333z" fill="#bbf8ff" stroke="#005050" stroke-width="1.5" stroke-linecap="round"/><path d="M291.22193,232.82882l-5,-1.33333l10,-3.33333l8,-8.66667l-7.33333,3l4.33333,-4.66667l7,-8.33333l-1.33333,12.33333l-8.33333,14l-12.33333,7z" fill="#bbf8ff" stroke="#005050" stroke-width="1.5" stroke-linecap="round"/><path d="M279.55528,124.16215h15l10.66667,2.33333l-8.66667,5.33333l1.33333,5l-10,-2l-10.66667,5.33333l2.66667,-7l-6.33333,-0.33333l4.66667,-6.33333z" fill="#cbfaff" stroke="#005050" stroke-width="1.5" stroke-linecap="round"/></g></g></g></svg>