<svg version="1.1" xmlns="http://www.w3.org/2000/svg" xmlns:xlink="http://www.w3.org/1999/xlink" width="113.69182" height="117.40547" viewBox="0,0,113.69182,117.40547"><defs><linearGradient x1="237.73497" y1="154.42042" x2="237.73497" y2="225.92042" gradientUnits="userSpaceOnUse" id="color-1"><stop offset="0" stop-color="#fb00ff"/><stop offset="1" stop-color="#a800bb"/></linearGradient></defs><g transform="translate(-183.17355,-121.04069)"><g data-paper-data="{&quot;isPaintingLayer&quot;:true}" fill-rule="nonzero" stroke-linecap="butt" stroke-linejoin="miter" stroke-miterlimit="10" stroke-dasharray="" stroke-dashoffset="0" style="mix-blend-mode: normal"><path d="M236.40162,154.72598v-15l-11.66666,6.66666l7.23302,-10.42137l-6.14469,-11.33787l12.67354,9.60591l8.97367,-8.03605l-2.63146,9.33618l8.22925,10.8532l-11.33333,-6.66666v15z" data-paper-data="{&quot;index&quot;:null}" fill="#07ff00" stroke="#03b100" stroke-width="2"/><path d="M274.47254,218.4149c0,4.59862 -4.68253,7.50552 -9.08564,7.50552c-8.73855,0 -40.23392,0 -55.6989,0c-2.88156,0 -3.98272,-0.65441 -5.97413,-2.19323c-1.99141,-1.53882 -2.71648,-2.98408 -2.71648,-4.52224c0,-8.53446 0,-45.86761 0,-59.64917c0,-3.20425 2.57316,-5.13536 6.71547,-5.13536c14.88818,0 50.04669,0 58.85912,0c3.90989,0 7.90055,3.32885 7.90055,6.71547c0,8.08422 0,42.00864 0,57.27901z" data-paper-data="{&quot;index&quot;:null}" fill="url(#color-1)" stroke="#260073" stroke-width="2"/><path d="M198.48496,180.30931c0,0 0,-16.15359 0,-21.33333c0,-1.42033 1.6941,-4.08491 4.26341,-5.43442c2.79798,-1.46962 6.57191,-1.56558 8.73659,-1.56558c3.81971,0 11,0 11,0l0.04537,8.02988l-9.04537,5.63679l-1.23344,19.10974z" fill="#3b3b3b" stroke="#260073" stroke-width="2"/><path d="M276.44699,197.83571c0,0 0,16.15359 0,21.33333c0,1.42033 -1.6941,4.08491 -4.26341,5.43442c-2.79798,1.46962 -6.5719,1.56558 -8.73659,1.56558c-3.81971,0 -11,0 -11,0l-0.04537,-8.02987l9.04537,-5.63679l1.23344,-19.10973z" data-paper-data="{&quot;index&quot;:null}" fill="#3b3b3b" stroke="#260073" stroke-width="2"/><path d="M235.06239,179.6166l3.10483,10.73697l-8.10483,9.01303l-0.89626,-9.2301z" fill="#3b3b3b" stroke="#260073" stroke-width="2.5"/><path d="M248.14572,158.78326l4.60483,12.73698l-5.35483,10.01302l-3.64626,-10.23009z" fill="#3b3b3b" stroke="#260073" stroke-width="2.5"/><path d="M260.31239,177.1166l2.60483,12.98698l-5.60483,11.76302l-4.64626,-14.73009z" fill="#3b3b3b" stroke="#260073" stroke-width="2.5"/><path d="M217.14573,175.44993l4.60483,12.73698l-5.35483,10.01302l-3.64626,-10.23009z" fill="#3b3b3b" stroke="#260073" stroke-width="2.5"/><path d="M226.22906,208.03326l4.60483,12.73698l-5.35483,10.01302l-3.64626,-10.23009z" fill="#3b3b3b" stroke="#260073" stroke-width="2.5"/><path d="M290.89572,177.28326l4.60483,12.73698l-5.35483,10.01302l-3.64626,-10.23009z" fill="#3b3b3b" stroke="#260073" stroke-width="2.5"/><path d="M191.89572,212.6166l4.60483,12.73698l-5.35483,10.01302l-3.64626,-10.23009z" fill="#3b3b3b" stroke="#260073" stroke-width="2.5"/><path d="M188.89572,150.94993l4.60483,12.73698l-5.35483,10.01302l-3.64626,-10.23009z" fill="#3b3b3b" stroke="#260073" stroke-width="2.5"/><path d="M266.56239,149.94993l3.35483,11.23698l-0.60483,9.51302l-8.89626,-9.48009z" fill="#3b3b3b" stroke="#260073" stroke-width="2.5"/><path d="M227.97906,150.78327l4.85483,12.48698l-6.85483,7.01302l-2.14626,-11.48009z" fill="#3b3b3b" stroke="#260073" stroke-width="2.5"/><path d="M245.89573,195.94993l3.60483,14.23698l-4.35483,8.51302l-3.64626,-15.73009z" fill="#3b3b3b" stroke="#260073" stroke-width="2.5"/><path d="M207.56239,203.6166l4.60483,12.73698l-5.35483,10.01302l-3.64626,-10.23009z" fill="#3b3b3b" stroke="#260073" stroke-width="2.5"/></g></g></svg>