<svg version="1.1" xmlns="http://www.w3.org/2000/svg" xmlns:xlink="http://www.w3.org/1999/xlink" width="16.51242" height="26.9601" viewBox="0,0,16.51242,26.9601"><defs><radialGradient cx="238.5" cy="182" r="6.16667" gradientUnits="userSpaceOnUse" id="color-1"><stop offset="0" stop-color="#ffbf00"/><stop offset="1" stop-color="#ff9000"/></radialGradient><radialGradient cx="234.32092" cy="196.62676" r="6.16667" gradientUnits="userSpaceOnUse" id="color-2"><stop offset="0" stop-color="#ffbf00"/><stop offset="1" stop-color="#ff9000"/></radialGradient></defs><g transform="translate(-229.65425,-173.83333)"><g data-paper-data="{&quot;isPaintingLayer&quot;:true}" fill-rule="nonzero" stroke="none" stroke-width="0" stroke-linecap="butt" stroke-linejoin="miter" stroke-miterlimit="10" stroke-dasharray="" stroke-dashoffset="0" style="mix-blend-mode: normal"><path d="M233.83333,180c0,-3.40576 2.76091,-6.16667 6.16667,-6.16667c3.40576,0 6.16667,2.76091 6.16667,6.16667c0,3.40576 -2.76091,6.16667 -6.16667,6.16667c-3.40576,0 -6.16667,-2.76091 -6.16667,-6.16667z" fill="url(#color-1)"/><path d="M229.65425,194.62676c0,-3.40576 2.76091,-6.16667 6.16667,-6.16667c3.40576,0 6.16667,2.76091 6.16667,6.16667c0,3.40576 -2.76091,6.16667 -6.16667,6.16667c-3.40576,0 -6.16667,-2.76091 -6.16667,-6.16667z" fill="url(#color-2)"/></g></g></svg>