<svg version="1.1" xmlns="http://www.w3.org/2000/svg" xmlns:xlink="http://www.w3.org/1999/xlink" width="64.35" height="80.48041" viewBox="0,0,64.35,80.48041"><g transform="translate(-95.01794,-113.8914)"><g data-paper-data="{&quot;isPaintingLayer&quot;:true}" fill-rule="nonzero" stroke="none" stroke-width="0" stroke-linecap="butt" stroke-linejoin="miter" stroke-miterlimit="10" stroke-dasharray="" stroke-dashoffset="0" style="mix-blend-mode: normal"><path d="M121.67114,138.76641c0,0 -0.19268,-5.46667 -0.52726,-10.59878c-0.09588,-1.47063 0.1498,-3.48248 -0.28759,-5.26027c-0.47625,-1.93571 -1.62314,-3.59394 -1.32705,-3.97393c0.33334,-0.42779 3.01434,3.13608 3.89706,4.53367c0.79344,1.25624 1.02386,2.97912 1.65369,2.78299c1.16005,-0.36123 0.27332,-2.38668 0.73611,-3.97788c0.2566,-0.88226 0.40393,-2.20285 1.19056,-3.12717c1.00799,-1.18441 2.66448,-1.87864 2.66448,-1.87864c0,0 -0.30793,2.27682 -0.44357,4.22785c-0.20761,2.98629 1.44558,5.79857 2.28514,5.33642c0.87622,-0.48232 4.17468,-2.34623 4.24985,-5.37132c0.07967,-3.20578 -3.09143,-7.56795 -3.09143,-7.56795c0,0 5.20573,2.79046 6.72333,6.74736c1.72056,4.4861 -0.2151,10.30029 -0.09248,12.12725c0.14939,2.22593 -1.38085,7.25039 -1.38085,7.25039c0,0 -4.85185,1.78735 -7.26104,-0.23686c-1.04851,-0.88096 -0.85787,-5.88814 -1.73896,-5.88814c-0.8814,0 -1.61015,3.48127 -2.90222,4.33374c-3.05893,2.01818 -4.34778,0.54126 -4.34778,0.54126z" fill="#30ac00"/><path d="M95.36793,182.75638c0,-12.22251 0,-30.56398 0,-37c0,-4.44448 6.60953,-9.63457 11.97422,-9.63457c7.11365,0 26.07476,0 38.57059,0c6.81377,0 11.70519,3.97441 11.70519,9.63457c0,10.97279 0,28.28092 0,35.25c0,5.76462 -4.1003,13.36543 -9.99636,13.36543c-11.96142,0 -31.31362,0 -38.81471,0c-5.87604,0 -13.43893,-4.8781 -13.43893,-11.61543z" fill="#ff0000"/><path d="M95.36794,171.79807c0,-9.28491 0,-23.21813 0,-28.1073c0,-3.37628 6.76879,-7.31896 12.26276,-7.31896c7.28507,0 26.70307,0 39.5,0c6.97796,0 11.98724,3.01919 11.98724,7.31896c0,8.33556 0,21.48379 0,26.7779c0,4.37913 -4.1991,10.15314 -10.23724,10.15314c-12.24965,0 -32.06816,0 -39.75,0c-6.01763,0 -13.76276,-3.70568 -13.76276,-8.82374z" fill="#ff4a00"/><path d="M95.01794,160.68947c0,-6.24239 0,-15.60993 0,-18.897c0,-2.26993 6.8325,-4.92066 12.37818,-4.92066c7.35363,0 26.95439,0 39.87176,0c7.04363,0 12.10006,2.02985 12.10006,4.92066c0,5.60413 0,14.4439 0,18.00322c0,2.94416 -4.23862,6.82612 -10.33359,6.82612c-12.36494,0 -32.36998,0 -40.12412,0c-6.07426,0 -13.89229,-2.49139 -13.89229,-5.93234z" fill="#ff9200"/><path d="M95.11794,150.23339c0,-4.09165 0,-10.23172 0,-12.38627c0,-1.48785 6.76879,-3.2253 12.26276,-3.2253c7.28507,0 26.70307,0 39.5,0c6.97796,0 11.98724,1.33049 11.98724,3.2253c0,3.6733 0,9.46744 0,11.80043c0,1.92979 -4.1991,4.47426 -10.23724,4.47426c-12.24965,0 -32.06816,0 -39.75,0c-6.01763,0 -13.76276,-1.63301 -13.76276,-3.88843z" fill="#ffe700"/><path d="M100.05756,186.71465c0,0 1.59404,-5.97735 3.71161,-8.46746c1.84464,-2.16916 8.28839,-5.64365 8.28839,-5.64365v14.11111z" fill="#ff0000"/><path d="M142.03533,185.38132c0,0 1.59404,-5.97735 3.71162,-8.46747c1.84464,-2.16916 4.51061,-5.64365 4.51061,-5.64365c0,0 1.64872,3.25323 2.17651,5.22469c0.68833,2.57112 1.60126,8.88643 1.60126,8.88643z" data-paper-data="{&quot;index&quot;:null}" fill="#ff0000"/><path d="M127.05756,185.82576c0,0 1.59404,-5.97735 3.71162,-8.46747c1.84464,-2.16916 4.5106,-5.64365 4.5106,-5.64365c0,0 1.64872,3.25323 2.17651,5.22469c0.68833,2.57112 1.60126,8.88643 1.60126,8.88643z" data-paper-data="{&quot;index&quot;:null}" fill="#ff0000"/><path d="M115.502,186.40354v-14.11111c0,0 6.44375,3.47449 8.28839,5.64365c2.11758,2.49012 3.71162,8.46746 3.71162,8.46746z" data-paper-data="{&quot;index&quot;:null}" fill="#ff0000"/><path d="M101.16867,169.93687c0,0 1.59404,-5.97735 3.71162,-8.46746c1.84464,-2.16916 4.5106,-5.64365 4.5106,-5.64365c0,0 1.64872,3.25323 2.17651,5.22469c0.68833,2.57112 1.60126,8.88642 1.60126,8.88642z" data-paper-data="{&quot;index&quot;:null}" fill="#ff4a00"/><path d="M128.83534,170.82576c0,0 1.59403,-5.97735 3.71161,-8.46747c1.84464,-2.16916 4.51061,-5.64365 4.51061,-5.64365c0,0 1.64872,3.25323 2.17651,5.22469c0.68833,2.57111 1.60126,8.88643 1.60126,8.88643z" data-paper-data="{&quot;index&quot;:null}" fill="#ff4a00"/><path d="M144.27978,171.06187v-14.11112c0,0 6.44374,3.47449 8.28838,5.64365c2.11758,2.49012 3.71162,8.46747 3.71162,8.46747z" data-paper-data="{&quot;index&quot;:null}" fill="#ff4a00"/><path d="M114.01311,170.64798c0,0 1.59404,-5.97735 3.71162,-8.46747c1.84464,-2.16916 8.28839,-5.64365 8.28839,-5.64365v14.11112z" fill="#ff4a00"/><path d="M98.61311,157.82576c0,0 1.59403,-5.97735 3.71161,-8.46747c1.84464,-2.16916 8.28839,-5.64365 8.28839,-5.64365v14.11112z" fill="#ff9200"/><path d="M116.94645,157.04798c0,0 1.59403,-5.97735 3.71161,-8.46747c1.84464,-2.16916 4.51061,-5.64365 4.51061,-5.64365c0,0 1.64872,3.25323 2.17651,5.22469c0.68833,2.57111 1.60126,8.88643 1.60126,8.88643z" data-paper-data="{&quot;index&quot;:null}" fill="#ff9200"/><path d="M130.61312,156.82576c0,0 1.59403,-5.97735 3.71161,-8.46747c1.84464,-2.16916 4.5106,-5.64365 4.5106,-5.64365c0,0 1.64872,3.25323 2.17651,5.22469c0.68833,2.57111 1.60127,8.88643 1.60127,8.88643z" data-paper-data="{&quot;index&quot;:null}" fill="#ff9200"/><path d="M145.83534,156.93688v-14.11111c0,0 6.44375,3.47449 8.28839,5.64365c2.11758,2.49012 3.71161,8.46746 3.71161,8.46746z" data-paper-data="{&quot;index&quot;:null}" fill="#ff9200"/><path d="M98.24645,139.32298c0,0 1.59403,-5.97735 3.71161,-8.46747c1.84464,-2.16916 4.5106,-5.64365 4.5106,-5.64365c0,0 1.64872,3.25323 2.17651,5.22469c0.68833,2.57111 1.60127,8.88643 1.60127,8.88643z" data-paper-data="{&quot;index&quot;:null}" fill="#ffe700"/><path d="M147.29645,139.99798c0,0 1.59403,-5.97735 3.71161,-8.46747c1.84464,-2.16916 4.5106,-5.64365 4.5106,-5.64365c0,0 1.64872,3.25323 2.17651,5.22469c0.68833,2.57111 1.60127,8.88643 1.60127,8.88643z" data-paper-data="{&quot;index&quot;:null}" fill="#ffe700"/><path d="M135.48811,140.75077v-14.11111c0,0 6.44375,3.47449 8.28839,5.64365c2.11758,2.49012 3.71161,8.46746 3.71161,8.46746z" data-paper-data="{&quot;index&quot;:null}" fill="#ffe700"/><path d="M113.03811,140.50077c0,0 1.59403,-5.97735 3.71161,-8.46746c1.84464,-2.16916 8.28839,-5.64365 8.28839,-5.64365v14.11111z" fill="#ffe700"/></g></g></svg>