<svg version="1.1" xmlns="http://www.w3.org/2000/svg" xmlns:xlink="http://www.w3.org/1999/xlink" width="50.26515" height="13.64832" viewBox="0,0,50.26515,13.64832"><g transform="translate(-215.54388,-173.17627)"><g data-paper-data="{&quot;isPaintingLayer&quot;:true}" fill-rule="nonzero" stroke-linejoin="miter" stroke-miterlimit="10" stroke-dasharray="" stroke-dashoffset="0" style="mix-blend-mode: normal"><path d="M239.71613,177.26233l21.44248,2.67292l-24.32678,3.57705l-10.75527,-2.76625c0,0 7.43122,-1.89803 9.94205,-2.53933c1.53121,-0.39109 3.6975,-0.94439 3.6975,-0.94439z" fill="#9ce3ff" stroke="#00daff" stroke-width="0.5" stroke-linecap="round"/><path d="M255.94,179.45846l-25.52804,0.16173c0,0 7.58538,-1.87309 9.22235,-2.18753c0.70888,-0.13617 16.30569,2.02581 16.30569,2.02581z" fill="#00b5ff" stroke="none" stroke-width="0" stroke-linecap="round"/><path d="M255.63461,180.46596l-18.7247,2.80568l-9.9718,-2.33933c0,0 3.35531,1.22603 9.33938,1.01459c0.30101,-0.01062 0.59152,-0.02015 0.86969,-0.02841c6.04755,-0.1795 18.68684,-1.48105 18.68684,-1.48105z" fill="#72d7ff" stroke="none" stroke-width="0" stroke-linecap="round"/><path d="M256.02385,180.9923l-18.60435,-1.56208l-16.68557,-2.45827c0,0 10.12634,0.77678 16.08073,1.40843c0.29952,0.03179 0.58848,0.06319 0.86505,0.09409c6.01275,0.67219 18.34414,2.5178 18.34414,2.5178z" fill="#cef1ff" stroke="none" stroke-width="0" stroke-linecap="round"/><path d="M250.21448,180.77189l-18.93317,0.14632l-9.54407,-3.71752c0,0 3.1497,1.6854 9.1041,2.31706c0.29952,0.03179 0.58848,0.06319 0.86505,0.09409c6.01275,0.67219 18.70953,1.15985 18.70953,1.15985z" fill="#72d7ff" stroke="none" stroke-width="0" stroke-linecap="round"/><path d="M235.43323,186.01256c0,0 -2.22256,-0.23446 -3.79353,-0.40018c-2.57604,-0.27174 -10.20025,-1.07602 -10.20025,-1.07602l10.25977,-4.09478l24.58805,0.11823l-20.85402,5.45275z" data-paper-data="{&quot;index&quot;:null}" fill="#56b2da" stroke="#00daff" stroke-width="0.5" stroke-linecap="round"/><path d="M235.32829,185.86118c-1.66491,-0.07829 -9.43825,-0.83791 -9.43825,-0.83791l25.29741,-3.3021c0,0 -15.13818,4.17391 -15.85917,4.14001z" data-paper-data="{&quot;index&quot;:null}" fill="#00b5ff" stroke="none" stroke-width="0" stroke-linecap="round"/><g stroke-linecap="round"><path d="M232.57649,173.98744l20.85403,5.65987l-24.58805,0.12272l-10.25977,-4.25032c0,0 7.62421,-0.83483 10.20025,-1.1169c1.57097,-0.17201 3.79353,-0.41538 3.79353,-0.41538z" fill="#56b2da" stroke="#00daff" stroke-width="0.5"/><path d="M248.3307,178.44183l-25.29741,-3.42753c0,0 7.77334,-0.78847 9.43825,-0.86974c0.72098,-0.03519 15.85916,4.29726 15.85916,4.29726z" fill="#00b5ff" stroke="none" stroke-width="0"/></g><path d="M221.6334,183.1288l-2.96256,-3.06836l2.96256,-2.32772l7.4064,2.85675h-0.21161z" fill="#72d7ff" stroke="none" stroke-width="0" stroke-linecap="butt"/><path d="M222.49005,182.11042l-1.63238,-1.69068l1.63238,-1.28259l4.08095,1.57408h-0.1166z" fill="#72d7ff" stroke="none" stroke-width="0" stroke-linecap="butt"/><path d="M253.6875,180.1875l-26.875,-0.75l-6.375,-2.625l-1.875,2.75l0.5,-0.625l2.5,-1.5" fill="none" stroke="#469cff" stroke-width="1.5" stroke-linecap="round"/><path d="M228.6875,180.8125l-1.5,0.75l-6.125,2.625l-3.25,-3.5l0.25,-1.125" fill="none" stroke="#469cff" stroke-width="1.5" stroke-linecap="round"/><path d="M220.6875,183.3125l-2,-2.625" fill="none" stroke="#469cff" stroke-width="1.5" stroke-linecap="round"/><path d="M219.4375,176.1875l-1.125,-0.5l14,-1.75l20.125,4.875l8.875,0.875l-26.5,6.375l-12,-1.625" fill="none" stroke="#469cff" stroke-width="1.5" stroke-linecap="round"/><path d="M224.3125,184.1875l5.25,-3.5l15.125,-0.25" fill="none" stroke="#469cff" stroke-width="1.5" stroke-linecap="round"/></g></g></svg>