<svg version="1.1" xmlns="http://www.w3.org/2000/svg" xmlns:xlink="http://www.w3.org/1999/xlink" width="39.32819" height="30.6081" viewBox="0,0,39.32819,30.6081"><g transform="translate(-220.37244,-164.73144)"><g data-paper-data="{&quot;isPaintingLayer&quot;:true}" fill-rule="nonzero" stroke="#97cfff" stroke-width="0.5" stroke-linecap="butt" stroke-linejoin="miter" stroke-miterlimit="10" stroke-dasharray="" stroke-dashoffset="0" style="mix-blend-mode: normal"><path d="M252.97034,178.3206l-2.01456,5.75494l1.95626,6.35124l-7.36421,-1.86286l-0.73906,6.34708l-5.1861,-3.35879l-7.54652,2.2582l-4.31964,-9.8401l-6.78239,1.62396l5.30087,-7.27366l7.24716,-2.2893l-6.6732,-8.05017l10.40383,2.09211l2.36988,-4.98424l6.82586,4.15143l8.06592,-3.04954l-0.74611,7.33109l5.25756,0.93405l-6.05556,3.86458z" fill="#cce7ff"/><path d="M250.47159,179.10511l-1.43196,4.09063l1.39051,4.51449l-5.2345,-1.32413l-0.52533,4.51153l-3.68629,-2.38744l-5.36409,1.60514l-3.07041,-6.99438l-4.82095,1.15432l3.76787,-5.17015l5.15131,-1.62724l-4.74333,-5.72209l7.39507,1.48708l1.68452,-3.54281l4.85184,2.95085l5.73328,-2.16762l-0.53034,5.21096l3.73709,0.66393l-4.30431,2.74695z" fill="#96ceff"/></g></g></svg>