<svg version="1.1" xmlns="http://www.w3.org/2000/svg" xmlns:xlink="http://www.w3.org/1999/xlink" width="62" height="59.83453" viewBox="0,0,62,59.83453"><defs><linearGradient x1="119.5" y1="92" x2="119.5" y2="144" gradientUnits="userSpaceOnUse" id="color-1"><stop offset="0" stop-color="#000000"/><stop offset="1" stop-color="#ffffff"/></linearGradient></defs><g transform="translate(-88.5,-85.56313)"><g data-paper-data="{&quot;isPaintingLayer&quot;:true}" fill-rule="nonzero" stroke="none" stroke-linecap="butt" stroke-linejoin="miter" stroke-miterlimit="10" stroke-dasharray="" stroke-dashoffset="0" style="mix-blend-mode: normal"><path d="M88.5,144v-52h62v52z" fill="url(#color-1)" stroke-width="0"/><path d="M112.95326,112.60482c0,2.48528 -4.25329,4.5 -9.5,4.5c-5.24671,0 -9.5,-2.01472 -9.5,-4.5c0,-2.48528 4.25329,-4.5 9.5,-4.5c5.24671,0 9.5,2.01472 9.5,4.5z" fill="#000000" stroke-width="0"/><path d="M144.82578,113.10482c0,1.65685 -4.02944,3 -9,3c-4.97056,0 -9,-1.34315 -9,-3c0,-1.65685 4.02944,-3 9,-3c4.97056,0 9,1.34315 9,3z" fill="#000000" stroke-width="0"/><text transform="translate(108.34136,132.04174) scale(1.06847,1.06847)" font-size="40" xml:space="preserve" fill="#000000" fill-rule="nonzero" stroke="none" stroke-width="1" stroke-linecap="butt" stroke-linejoin="miter" stroke-miterlimit="10" stroke-dasharray="" stroke-dashoffset="0" font-family="Sans Serif" font-weight="normal" text-anchor="start" style="mix-blend-mode: normal"><tspan x="0" dy="0">?</tspan></text></g></g></svg>