<svg version="1.1" xmlns="http://www.w3.org/2000/svg" xmlns:xlink="http://www.w3.org/1999/xlink" width="17.76717" height="17.76717" viewBox="0,0,17.76717,17.76717"><g transform="translate(-231.11641,-171.11641)"><g data-paper-data="{&quot;isPaintingLayer&quot;:true}" fill-rule="nonzero" stroke="none" stroke-width="0" stroke-linecap="butt" stroke-linejoin="miter" stroke-miterlimit="10" stroke-dasharray="" stroke-dashoffset="0" style="mix-blend-mode: normal"><path d="M231.11642,188.88359v-17.76717h17.76717v17.76717z" fill="#ff0000"/><path d="M244.59667,174.83155c0,1.13909 -0.55964,2.0625 -1.25,2.0625c-0.69036,0 -1.25,-0.92341 -1.25,-2.0625c0,-1.13909 0.55964,-2.0625 1.25,-2.0625c0.69036,0 1.25,0.92341 1.25,2.0625z" fill="#000000"/><path d="M244.09667,184.08155c0,1.13908 -0.55964,2.0625 -1.25,2.0625c-0.69036,0 -1.25,-0.92342 -1.25,-2.0625c0,-1.13908 0.55964,-2.0625 1.25,-2.0625c0.69036,0 1.25,0.92342 1.25,2.0625z" fill="#000000"/></g></g></svg>