<svg version="1.1" xmlns="http://www.w3.org/2000/svg" xmlns:xlink="http://www.w3.org/1999/xlink" width="74.18555" height="84.68332" viewBox="0,0,74.18555,84.68332"><defs><radialGradient cx="259.3868" cy="158.02081" r="8.46113" gradientUnits="userSpaceOnUse" id="color-1"><stop offset="0" stop-color="#ff0000" stop-opacity="0"/><stop offset="1" stop-color="#ff0000" stop-opacity="0"/></radialGradient><radialGradient cx="217.87502" cy="160.63402" r="8.46112" gradientUnits="userSpaceOnUse" id="color-2"><stop offset="0" stop-color="#ff0000" stop-opacity="0"/><stop offset="1" stop-color="#ff0000" stop-opacity="0"/></radialGradient><radialGradient cx="219.18242" cy="201.78868" r="8.46112" gradientUnits="userSpaceOnUse" id="color-3"><stop offset="0" stop-color="#ff0000" stop-opacity="0"/><stop offset="1" stop-color="#ff0000" stop-opacity="0"/></radialGradient><radialGradient cx="239.89852" cy="149.99731" r="8.46112" gradientUnits="userSpaceOnUse" id="color-4"><stop offset="0" stop-color="#ff0000" stop-opacity="0"/><stop offset="1" stop-color="#ff0000" stop-opacity="0"/></radialGradient><radialGradient cx="269.94491" cy="179.66963" r="8.46112" gradientUnits="userSpaceOnUse" id="color-5"><stop offset="0" stop-color="#ff0000" stop-opacity="0"/><stop offset="1" stop-color="#ff0000" stop-opacity="0"/></radialGradient><radialGradient cx="241.25473" cy="208.66021" r="8.46112" gradientUnits="userSpaceOnUse" id="color-6"><stop offset="0" stop-color="#ff0000" stop-opacity="0"/><stop offset="1" stop-color="#ff0000" stop-opacity="0"/></radialGradient><radialGradient cx="209.45833" cy="183.7379" r="8.46112" gradientUnits="userSpaceOnUse" id="color-7"><stop offset="0" stop-color="#ff0000" stop-opacity="0"/><stop offset="1" stop-color="#ff0000" stop-opacity="0"/></radialGradient><radialGradient cx="264.00001" cy="197.9076" r="8.46113" gradientUnits="userSpaceOnUse" id="color-8"><stop offset="0" stop-color="#ff0000" stop-opacity="0"/><stop offset="1" stop-color="#ff0000" stop-opacity="0"/></radialGradient></defs><g transform="translate(-202.60885,-130.82638)"><g data-paper-data="{&quot;isPaintingLayer&quot;:true}" fill-rule="nonzero" stroke-linejoin="miter" stroke-miterlimit="10" stroke-dasharray="" stroke-dashoffset="0" style="mix-blend-mode: normal"><path d="M205.33337,180c0,-19.14587 15.5208,-34.66667 34.66667,-34.66667c19.14587,0 34.66667,15.5208 34.66667,34.66667c0,19.14587 -15.5208,34.66667 -34.66667,34.66667c-19.14587,0 -34.66667,-15.5208 -34.66667,-34.66667z" fill="none" stroke="#fbff00" stroke-width="1.5" stroke-linecap="butt"/><path d="M230.28823,130.82638z" fill="none" stroke="#fbff00" stroke-width="1.5" stroke-linecap="butt"/><path d="M214.00003,180c0,-14.35941 11.6406,-26 26,-26c14.35941,0 26,11.6406 26,26c0,14.35941 -11.6406,26 -26,26c-14.35941,0 -26,-11.6406 -26,-26z" fill="none" stroke="#fbff00" stroke-width="1.5" stroke-linecap="butt"/><path d="M209,180c0,-17.12082 13.87918,-31 31,-31c17.12083,0 31,13.87918 31,31c0,17.12082 -13.87918,31 -31,31c-17.12082,0 -31,-13.87918 -31,-31z" fill="none" stroke="#fbff00" stroke-width="1.5" stroke-linecap="butt"/><path d="M253.56079,157.99653l-35.83333,35.83334" fill="none" stroke="#fbff00" stroke-width="1.5" stroke-linecap="round"/><path d="M261.56079,165.82986l-35.58333,35.58333" fill="none" stroke="#fbff00" stroke-width="1.5" stroke-linecap="round"/><path d="M221.72746,198.16319l36.33333,-36.33333" fill="none" stroke="#fbff00" stroke-width="1.5" stroke-linecap="round"/><path d="M258.40048,149.84608l9.15745,6.65922l-7.22812,5.85592l1.57375,1.71867l-1.53046,2.11564l-2.57466,-1.28951l0.45467,-2.91922l5.97657,-5.13118l-5.26524,-4.74764l-5.32944,4.8602l0.97821,2.05835l-2.17592,1.6335l-1.9952,-2.15418l0.66817,-2.00537z" fill="#ffa000" stroke="url(#color-1)" stroke-width="0" stroke-linecap="round"/><path d="M209.70029,161.62034l6.65923,-9.15745l5.85592,7.22813l1.71867,-1.57376l2.11564,1.53046l-1.28951,2.57466l-2.91923,-0.45468l-5.13118,-5.97657l-4.74764,5.26524l4.8602,5.32944l2.05836,-0.97821l1.6335,2.17593l-2.15418,1.9952l-2.00537,-0.66817z" fill="#ffdd00" stroke="url(#color-2)" stroke-width="0" stroke-linecap="round"/><path d="M220.16874,209.96341l-9.15745,-6.65923l7.22813,-5.85592l-1.57376,-1.71867l1.53046,-2.11564l2.57466,1.28951l-0.45468,2.91923l-5.97657,5.13118l5.26524,4.74764l5.32944,-4.8602l-0.97821,-2.05836l2.17593,-1.6335l1.9952,2.15418l-0.66817,2.00537z" fill="#00ff39" stroke="url(#color-3)" stroke-width="0" stroke-linecap="round"/><path d="M233.42068,144.91433l11.18408,-1.76651l-0.9703,9.25182l2.3281,0.10247l0.41378,2.57818l-2.73238,0.90874l-1.7427,-2.38571l0.59778,-7.85437l-7.08018,0.366l-0.3318,7.20516l2.14718,0.76378l-0.38356,2.69367l-2.93405,-0.11242l-0.94554,-1.89048z" fill="#00fffd" stroke="url(#color-4)" stroke-width="0" stroke-linecap="round"/><path d="M275.02789,173.19179l1.76651,11.18409l-9.25182,-0.9703l-0.10247,2.3281l-2.57818,0.41378l-0.90874,-2.73238l2.38572,-1.7427l7.85437,0.59778l-0.366,-7.08017l-7.20516,-0.33181l-0.76378,2.14718l-2.69367,-0.38356l0.11241,-2.93405l1.89048,-0.94555z" fill="#000bff" stroke="url(#color-5)" stroke-width="0" stroke-linecap="round"/><path d="M247.73257,213.74319l-11.18409,1.76651l0.9703,-9.25182l-2.3281,-0.10247l-0.41379,-2.57818l2.73239,-0.90874l1.7427,2.38572l-0.59778,7.85437l7.08018,-0.366l0.3318,-7.20516l-2.14718,-0.76378l0.38356,-2.69367l2.93406,0.11241l0.94555,1.89048z" fill="#ff0000" stroke="url(#color-6)" stroke-width="0" stroke-linecap="round"/><path d="M204.37536,190.21574l-1.76651,-11.18409l9.25182,0.9703l0.10247,-2.3281l2.57818,-0.41378l0.90874,2.73238l-2.38571,1.7427l-7.85437,-0.59778l0.366,7.08018l7.20516,0.33181l0.76378,-2.14718l2.69367,0.38356l-0.11241,2.93405l-1.89048,0.94555z" fill="#e000ff" stroke="url(#color-7)" stroke-width="0" stroke-linecap="round"/><path d="M272.17474,196.92128l-6.65922,9.15745l-5.85592,-7.22812l-1.71867,1.57375l-2.11564,-1.53046l1.28951,-2.57466l2.91922,0.45467l5.13118,5.97657l4.74764,-5.26524l-4.8602,-5.32944l-2.05835,0.97821l-1.6335,-2.17592l2.15418,-1.9952l2.00537,0.66817z" fill="#ff48f9" stroke="url(#color-8)" stroke-width="0" stroke-linecap="round"/></g></g></svg>