<svg version="1.1" xmlns="http://www.w3.org/2000/svg" xmlns:xlink="http://www.w3.org/1999/xlink" width="223.16733" height="155.73924" viewBox="0,0,223.16733,155.73924"><defs><radialGradient cx="198.10206" cy="178.66031" r="47.5" gradientUnits="userSpaceOnUse" id="color-1"><stop offset="0" stop-color="#ffea00"/><stop offset="1" stop-color="#ffea00" stop-opacity="0"/></radialGradient><radialGradient cx="223.17943" cy="147.79716" r="19.94357" gradientUnits="userSpaceOnUse" id="color-2"><stop offset="0" stop-color="#ffea00"/><stop offset="1" stop-color="#ffea00" stop-opacity="0"/></radialGradient><radialGradient cx="233.80906" cy="201.56988" r="27.35424" gradientUnits="userSpaceOnUse" id="color-3"><stop offset="0" stop-color="#ffea00"/><stop offset="1" stop-color="#ffea00" stop-opacity="0"/></radialGradient><radialGradient cx="277.6082" cy="184.25475" r="94.7326" gradientUnits="userSpaceOnUse" id="color-4"><stop offset="0" stop-color="#00a9ff"/><stop offset="1" stop-color="#00a9ff" stop-opacity="0"/></radialGradient><radialGradient cx="215.06382" cy="181.33441" r="47.5" gradientUnits="userSpaceOnUse" id="color-5"><stop offset="0" stop-color="#11ff00"/><stop offset="1" stop-color="#11ff00" stop-opacity="0"/></radialGradient><radialGradient cx="200.55451" cy="181.00974" r="58.93212" gradientUnits="userSpaceOnUse" id="color-6"><stop offset="0" stop-color="#ffea00"/><stop offset="1" stop-color="#ffea00" stop-opacity="0"/></radialGradient><radialGradient cx="245.50816" cy="151.2472" r="38.58418" gradientUnits="userSpaceOnUse" id="color-7"><stop offset="0" stop-color="#ffea00"/><stop offset="1" stop-color="#ffea00" stop-opacity="0"/></radialGradient><radialGradient cx="222.7565" cy="197.66615" r="17.04853" gradientUnits="userSpaceOnUse" id="color-8"><stop offset="0" stop-color="#ffea00"/><stop offset="1" stop-color="#ffea00" stop-opacity="0"/></radialGradient><radialGradient cx="288.09626" cy="173.60547" r="104.91544" gradientUnits="userSpaceOnUse" id="color-9"><stop offset="0" stop-color="#009eff"/><stop offset="1" stop-color="#009eff" stop-opacity="0"/></radialGradient><radialGradient cx="217.22595" cy="176.40119" r="53.21606" gradientUnits="userSpaceOnUse" id="color-10"><stop offset="0" stop-color="#11ff00"/><stop offset="1" stop-color="#11ff00" stop-opacity="0"/></radialGradient><radialGradient cx="306.62711" cy="164.67331" r="55.01041" gradientUnits="userSpaceOnUse" id="color-11"><stop offset="0" stop-color="#ff0000"/><stop offset="1" stop-color="#ff0000" stop-opacity="0"/></radialGradient><radialGradient cx="286.89604" cy="199.9216" r="42.93257" gradientUnits="userSpaceOnUse" id="color-12"><stop offset="0" stop-color="#ff0000"/><stop offset="1" stop-color="#ff0000" stop-opacity="0"/></radialGradient></defs><g transform="translate(-174.84436,-103.14012)"><g data-paper-data="{&quot;isPaintingLayer&quot;:true}" fill="none" fill-rule="nonzero" stroke-linejoin="miter" stroke-miterlimit="10" stroke-dasharray="" stroke-dashoffset="0" style="mix-blend-mode: normal"><path d="M197.22733,180.73994c0,28.47727 -2.02777,51.56265 -4.52915,51.56265c-2.50139,0 -15.35382,-22.7362 -15.35382,-51.21347c0,-28.47727 12.85243,-51.91183 15.35382,-51.91183c2.50139,0 4.52915,23.08538 4.52915,51.56265z" stroke="#ffea00" stroke-width="5" stroke-linecap="butt"/><path d="M208.70777,178.66031l-10.60571,47.5l-15.43077,-47.5l15.43077,-47.5z" stroke="url(#color-1)" stroke-width="10" stroke-linecap="butt"/><path d="M246.74237,162.882l-47.12587,-30.16969" stroke="url(#color-2)" stroke-width="10" stroke-linecap="round"/><path d="M263.95582,183.66532l-60.29349,35.80912" stroke="url(#color-3)" stroke-width="10" stroke-linecap="round"/><path d="M372.34079,186.32128l-189.4652,-4.13304h48.41888" stroke="url(#color-4)" stroke-width="10" stroke-linecap="round"/><path d="M225.66953,181.33441l-10.60571,47.5l-15.43077,-47.5l15.43077,-47.5z" stroke="url(#color-5)" stroke-width="10" stroke-linecap="butt"/><path d="M213.71277,181.00974l-13.15825,58.93212l-19.14459,-58.93212l19.14459,-58.93212z" stroke="url(#color-6)" stroke-width="10" stroke-linecap="butt"/><path d="M291.09462,180.43135l-91.1729,-58.36832" stroke="url(#color-7)" stroke-width="10" stroke-linecap="round"/><path d="M241.54547,186.50713l-37.57792,22.31804" stroke="url(#color-8)" stroke-width="10" stroke-linecap="round"/><path d="M393.01169,175.672l-209.83088,-4.13304h53.62345" stroke="url(#color-9)" stroke-width="10" stroke-linecap="round"/><path d="M229.10794,176.40119l-11.88198,53.21606l-17.28768,-53.21606l17.28768,-53.21606z" stroke="url(#color-10)" stroke-width="10" stroke-linecap="butt"/><path d="M375.64961,165.45661l-110.02083,-5.48307" stroke="url(#color-11)" stroke-width="10" stroke-linecap="round"/><path d="M249.17957,193.65524l85.86515,7.04966" stroke="url(#color-12)" stroke-width="10" stroke-linecap="round"/></g></g></svg>